<svg width="11" height="11" viewBox="0 0 11 11" fill="none" xmlns="http://www.w3.org/2000/svg">
<path d="M2.49258 0.911019C2.89362 0.646046 3.31973 0.438363 3.7709 0.287972C4.21491 0.137582 4.66608 0.0462732 5.12441 0.0140467C5.58275 -0.0181799 6.0375 0.00509453 6.48867 0.0838709C6.94701 0.162647 7.38385 0.298715 7.79922 0.492074C7.87083 0.52072 7.94066 0.552946 8.00869 0.588754C8.07673 0.624561 8.14655 0.660368 8.21816 0.696176C8.41868 0.810759 8.61384 0.937875 8.80361 1.07752C8.99339 1.21717 9.17422 1.37293 9.34609 1.54481C9.81159 1.98882 10.1768 2.4937 10.4418 3.05946C10.7139 3.61805 10.8858 4.19992 10.9574 4.80506C11.029 5.4102 11.0004 6.02072 10.8715 6.6366C10.7426 7.25249 10.5063 7.83257 10.1625 8.37684C9.82591 8.92827 9.41055 9.39735 8.91641 9.78407C8.42227 10.1779 7.88695 10.4769 7.31045 10.681C6.73395 10.8851 6.13418 10.9908 5.51113 10.9979C4.88092 11.0051 4.26504 10.9048 3.66348 10.6972C3.53457 10.6542 3.44147 10.5754 3.38418 10.4608C3.32689 10.3462 3.31973 10.2245 3.3627 10.0956C3.41283 9.97384 3.49697 9.88612 3.61514 9.83241C3.7333 9.77869 3.85326 9.77332 3.975 9.81629C4.28294 9.92371 4.59447 9.99891 4.90957 10.0419C5.22467 10.0777 5.5362 10.0831 5.84414 10.058C6.15208 10.0329 6.45645 9.97743 6.75723 9.89149C7.05801 9.79839 7.34447 9.68022 7.6166 9.537C7.96751 9.3508 8.29336 9.11984 8.59414 8.84412C8.89492 8.56841 9.15632 8.25151 9.37832 7.89344C9.66478 7.43511 9.86172 6.95171 9.96914 6.44325C10.0766 5.93478 10.0998 5.42811 10.039 4.92323C9.97809 4.41834 9.83665 3.93315 9.61465 3.46766C9.39264 3.00216 9.08828 2.58322 8.70156 2.21082C8.31484 1.83843 7.88516 1.54481 7.4125 1.32996C6.93984 1.11512 6.45107 0.984425 5.94619 0.937875C5.44131 0.891325 4.93822 0.932504 4.43691 1.06141C3.92845 1.18316 3.44863 1.39084 2.99746 1.68446C2.54629 1.98524 2.16673 2.34331 1.85879 2.75868C1.54368 3.17404 1.30736 3.62342 1.1498 4.10682C0.992253 4.59022 0.917057 5.09331 0.924219 5.6161C0.93138 6.13172 1.03164 6.64019 1.225 7.14149C1.33958 7.44227 1.50967 7.68934 1.73525 7.8827C1.96084 8.07606 2.19538 8.19422 2.43887 8.23719C2.6752 8.28732 2.90257 8.27121 3.121 8.18885C3.33942 8.10649 3.54173 7.92209 3.72793 7.63563L3.7709 7.56043L4.06094 7.06629C3.7888 6.787 3.61693 6.46294 3.54531 6.09412C3.4737 5.72531 3.53815 5.34754 3.73867 4.96082L3.79238 4.87489L4.06094 4.41297L3.96426 4.35926C3.85684 4.30197 3.79059 4.20887 3.76553 4.07996C3.74046 3.95106 3.76374 3.82573 3.83535 3.70399C3.8998 3.58224 3.98932 3.49989 4.10391 3.45692C4.21849 3.41395 4.32591 3.41395 4.42617 3.45692L4.46914 3.4784L4.97402 3.7577L5.61856 2.64051C5.67585 2.54741 5.75641 2.48833 5.86025 2.46327C5.9641 2.4382 6.07331 2.45789 6.18789 2.52235C6.28815 2.57964 6.35619 2.65483 6.39199 2.74793C6.4278 2.84103 6.4278 2.93413 6.39199 3.02723L6.37051 3.0702L5.71523 4.18739L6.53164 4.66004L7.18691 3.53211C7.23704 3.44618 7.31403 3.38888 7.41787 3.36024C7.52171 3.33159 7.63092 3.3495 7.74551 3.41395C7.85293 3.4784 7.92275 3.55718 7.95498 3.65028C7.98721 3.74338 7.98542 3.83289 7.94961 3.91883L7.92813 3.9618L7.27285 5.08973L7.77773 5.36903C7.878 5.43348 7.94066 5.53016 7.96572 5.65907C7.99079 5.78797 7.96751 5.9133 7.8959 6.03504C7.83145 6.14963 7.74193 6.23019 7.62734 6.27674C7.51276 6.32329 7.40534 6.32508 7.30508 6.28211L7.26211 6.26063L7.16543 6.20692L6.89688 6.65809C6.67487 7.04481 6.38841 7.30799 6.0375 7.44764C5.68659 7.58729 5.32135 7.62131 4.9418 7.54969L4.85586 7.52821L4.57656 8.02235C4.30443 8.48068 3.95531 8.80295 3.5292 8.98914C3.10309 9.17534 2.67878 9.22905 2.25625 9.15028C1.84089 9.0715 1.46312 8.88351 1.12295 8.58631C0.78278 8.28911 0.526758 7.91851 0.354883 7.4745C0.125716 6.88009 0.00755208 6.26779 0.000390625 5.63758C-0.00677083 5.01453 0.0845378 4.41118 0.274316 3.82752C0.464095 3.24386 0.745182 2.70138 1.11758 2.20008C1.48997 1.69878 1.94831 1.26909 2.49258 0.911019ZM6.81094 5.55164L4.80215 4.39149L4.34023 5.19715C4.19701 5.43348 4.13792 5.66981 4.16299 5.90614C4.18805 6.14246 4.28652 6.36089 4.4584 6.56141L4.51211 6.62586L4.71621 6.84071L5.00625 6.90516C5.27122 6.97677 5.5165 6.9714 5.74209 6.88905C5.96768 6.80669 6.15566 6.65093 6.30606 6.42176L6.34902 6.34657L6.81094 5.55164Z" fill="black"/>
</svg>
