<svg width="18" height="26" viewBox="0 0 18 26" fill="none" xmlns="http://www.w3.org/2000/svg">
<path id="Vector" d="M17.75 24.0065C16.7793 25.0282 15.589 25.5507 14.1792 25.5739C12.7694 25.5971 11.5791 25.1211 10.6084 24.1458C10.5622 24.1458 10.5275 24.1226 10.5044 24.0762C10.4813 24.0297 10.4466 24.0065 10.4004 24.0065L-2.19863e-06 13L10.4004 1.99349C11.3711 0.971786 12.5498 0.449325 13.9365 0.426103C15.3232 0.402883 16.5251 0.878903 17.542 1.85416C17.5882 1.85416 17.6229 1.87738 17.646 1.92383C17.6691 1.97027 17.7038 1.99349 17.75 1.99349L7.34961 13L17.75 24.0065Z" fill="black"/>
</svg>
