<svg width="76" height="104" viewBox="0 0 76 104" fill="none" xmlns="http://www.w3.org/2000/svg">
<g filter="url(#filter0_d_37_23)">
<path d="M43 89H33V96H43V89Z" fill="white"/>
</g>
<g filter="url(#filter1_d_37_23)">
<path d="M64 69H12V71H64V69Z" fill="white"/>
</g>
<g filter="url(#filter2_d_37_23)">
<path d="M62 73H56C56 76.1198 58.3036 77.5207 62 76.8252V73Z" fill="white"/>
</g>
<g filter="url(#filter3_d_37_23)">
<path d="M65 52H11V54H65V52Z" fill="white"/>
</g>
<g filter="url(#filter4_d_37_23)">
<path d="M46.3794 75.7912C43.7133 78.3633 43.7339 83 43.7339 83H32.2559C32.2559 83 32.2559 78.3864 29.6103 75.7912C28.4253 74.6844 27.0082 73.9342 25.4927 73.6113C24 73.2999 24 73.1153 24 73H52C52 73 52 73.2884 50.5176 73.6113C49.0018 73.9333 47.5845 74.6836 46.4 75.7912" fill="white"/>
</g>
<g filter="url(#filter5_d_37_23)">
<path d="M14 73H20C20 76.1198 17.7005 77.5207 14 76.8252V73Z" fill="white"/>
</g>
<g filter="url(#filter6_d_37_23)">
<path d="M34.5585 10.8668C36.9382 6.57566 37.397 0.102906 38.0053 0C38.6029 0.102906 39.0725 6.56537 41.4415 10.8668C43.6932 14.9213 48.5273 18.3584 48.2499 18.7597C47.9724 19.161 45.2298 17.9982 43.8852 17.4322C41.751 16.5061 39.9795 15.796 39.9795 15.796C39.5498 22.4399 40.1869 29.1079 41.8684 35.5642C43.6823 41.1048 46.4295 46.3198 50 51H43.1169L42.4873 49.9709C40.4737 46.8493 38.9593 43.4531 37.9947 39.8965C37.0289 43.4527 35.5144 46.8487 33.502 49.9709C33.2992 50.3002 33.0858 50.6295 32.8724 51H26C29.5683 46.3186 32.3154 41.1039 34.1316 35.5642C35.8109 29.1075 36.448 22.4398 36.0204 15.796C36.0204 15.796 34.2703 16.5163 32.1147 17.4322C30.7701 18.0085 28.0916 19.2639 27.7501 18.7597C27.4086 18.2555 32.3068 14.9213 34.5585 10.8668Z" fill="white"/>
</g>
<g filter="url(#filter7_d_37_23)">
<path d="M15.0314 51C15.0314 50.2242 14.595 39.6252 12.0471 31.2802C9.2557 22.1385 3.64237 16.7079 4.01795 16.1523C4.39352 15.5967 9.01205 16.5716 12.4937 18.9095C16.2089 21.4046 19.853 25.5247 19.5992 25.8392C19.3454 26.1537 18.1781 25.011 15.9145 24.1828C14.8275 23.6903 13.6501 23.4471 12.4633 23.4699C14.9825 27.6782 16.9873 32.1926 18.4319 36.9099C19.6345 41.5286 20.493 46.2355 21 50.9895L15.0314 51Z" fill="white"/>
</g>
<g filter="url(#filter8_d_37_23)">
<path d="M60.962 51C60.962 50.2242 61.3987 39.6252 63.9481 31.2802C66.7411 22.1385 72.3578 16.7079 71.982 16.1523C71.6062 15.5967 66.9849 16.5716 63.5012 18.9095C59.7838 21.4046 56.1274 25.5247 56.3915 25.8392C56.6555 26.1537 57.8134 25.011 60.0784 24.1828C61.1693 23.6895 62.351 23.4462 63.5418 23.4699C61.0221 27.6787 59.0162 32.193 57.5697 36.9099C56.3648 41.5282 55.5057 46.2353 55 50.9895L60.962 51Z" fill="white"/>
</g>
<g filter="url(#filter9_d_37_23)">
<path d="M15.808 66H13.144L14.248 60.816L11.404 66H9.772L9.232 60.636L8.08 66H7L8.62 58.38H11.68L12.052 62.676L14.356 58.38H17.44L15.808 66ZM23.773 66H20.965L20.797 64.092H18.577L17.725 66H16.561L20.101 58.38H22.945L23.773 66ZM18.973 63.216H20.713L20.437 59.952L18.973 63.216ZM28.978 60.588C29.002 60.468 29.014 60.304 29.014 60.096C29.014 59.976 29.006 59.86 28.99 59.748C28.974 59.628 28.946 59.524 28.906 59.436C28.866 59.34 28.806 59.268 28.726 59.22C28.646 59.164 28.542 59.136 28.414 59.136C28.27 59.136 28.138 59.168 28.018 59.232C27.898 59.296 27.79 59.38 27.694 59.484C27.606 59.58 27.534 59.696 27.478 59.832C27.43 59.96 27.406 60.096 27.406 60.24C27.406 60.448 27.458 60.608 27.562 60.72C27.674 60.832 27.818 60.924 27.994 60.996C28.17 61.068 28.37 61.128 28.594 61.176C28.818 61.224 29.05 61.28 29.29 61.344C29.49 61.4 29.69 61.472 29.89 61.56C30.09 61.648 30.266 61.768 30.418 61.92C30.578 62.064 30.706 62.256 30.802 62.496C30.898 62.728 30.946 63.02 30.946 63.372C30.946 63.876 30.846 64.3 30.646 64.644C30.446 64.988 30.17 65.268 29.818 65.484C29.466 65.7 29.046 65.856 28.558 65.952C28.078 66.048 27.554 66.096 26.986 66.096C26.41 66.096 25.938 66.06 25.57 65.988C25.21 65.908 24.926 65.824 24.718 65.736C24.47 65.632 24.286 65.512 24.166 65.376L24.574 63.732H26.686C26.678 63.804 26.67 63.904 26.662 64.032C26.654 64.152 26.65 64.248 26.65 64.32C26.65 64.416 26.662 64.516 26.686 64.62C26.71 64.724 26.746 64.82 26.794 64.908C26.85 64.996 26.926 65.068 27.022 65.124C27.118 65.18 27.238 65.208 27.382 65.208C27.542 65.208 27.682 65.172 27.802 65.1C27.93 65.028 28.034 64.94 28.114 64.836C28.202 64.724 28.266 64.604 28.306 64.476C28.354 64.34 28.378 64.208 28.378 64.08C28.378 63.904 28.334 63.756 28.246 63.636C28.166 63.516 28.054 63.416 27.91 63.336C27.766 63.248 27.598 63.176 27.406 63.12C27.222 63.056 27.03 62.992 26.83 62.928C26.638 62.872 26.434 62.804 26.218 62.724C26.01 62.644 25.818 62.532 25.642 62.388C25.466 62.244 25.318 62.064 25.198 61.848C25.086 61.624 25.03 61.34 25.03 60.996C25.03 60.484 25.158 60.056 25.414 59.712C25.678 59.36 26.006 59.076 26.398 58.86C26.798 58.644 27.234 58.492 27.706 58.404C28.178 58.308 28.626 58.26 29.05 58.26C29.61 58.26 30.09 58.328 30.49 58.464C30.898 58.592 31.206 58.744 31.414 58.92L30.97 60.588H28.978ZM32.913 58.38H37.965L37.773 59.292H35.325L34.821 61.608H36.873L36.681 62.508H34.629L34.077 65.076H36.525L36.345 66H31.293L32.913 58.38ZM44.8041 60.192C44.8041 60.664 44.6721 61.1 44.4081 61.5C44.1441 61.9 43.7081 62.204 43.1001 62.412L44.4921 66H41.8161L40.7601 62.676H40.6281L39.9201 66H37.3281L38.9481 58.38H42.1041C42.4721 58.38 42.8201 58.404 43.1481 58.452C43.4761 58.492 43.7601 58.58 44.0001 58.716C44.2481 58.844 44.4441 59.028 44.5881 59.268C44.7321 59.5 44.8041 59.808 44.8041 60.192ZM41.3481 61.908C41.5561 61.908 41.7321 61.84 41.8761 61.704C42.0281 61.56 42.1481 61.388 42.2361 61.188C42.3321 60.988 42.4001 60.776 42.4401 60.552C42.4801 60.32 42.5001 60.12 42.5001 59.952C42.5001 59.744 42.4641 59.568 42.3921 59.424C42.3201 59.272 42.1641 59.196 41.9241 59.196H41.3841L40.7841 61.908H41.3481ZM51.5699 66H48.7619L48.5939 64.092H46.3739L45.5219 66H44.3579L47.8979 58.38H50.7419L51.5699 66ZM46.7699 63.216H48.5099L48.2339 59.952L46.7699 63.216ZM58.8158 59.292H56.8838L55.4558 66H52.8638L54.2918 59.292H52.3838L52.5998 58.38H59.0198L58.8158 59.292ZM65.4721 59.292H63.5401L62.1121 66H59.5201L60.9481 59.292H59.0401L59.2561 58.38H65.6761L65.4721 59.292ZM67.4123 66H64.8203L66.4403 58.38H69.0443L67.4123 66Z" fill="white"/>
</g>
<path d="M30 87.9533V84H46V88H30V87.9533Z" fill="white"/>
<defs>
<filter id="filter0_d_37_23" x="29" y="89" width="18" height="15" filterUnits="userSpaceOnUse" color-interpolation-filters="sRGB">
<feFlood flood-opacity="0" result="BackgroundImageFix"/>
<feColorMatrix in="SourceAlpha" type="matrix" values="0 0 0 0 0 0 0 0 0 0 0 0 0 0 0 0 0 0 127 0" result="hardAlpha"/>
<feOffset dy="4"/>
<feGaussianBlur stdDeviation="2"/>
<feComposite in2="hardAlpha" operator="out"/>
<feColorMatrix type="matrix" values="0 0 0 0 0 0 0 0 0 0 0 0 0 0 0 0 0 0 0.25 0"/>
<feBlend mode="normal" in2="BackgroundImageFix" result="effect1_dropShadow_37_23"/>
<feBlend mode="normal" in="SourceGraphic" in2="effect1_dropShadow_37_23" result="shape"/>
</filter>
<filter id="filter1_d_37_23" x="8" y="69" width="60" height="10" filterUnits="userSpaceOnUse" color-interpolation-filters="sRGB">
<feFlood flood-opacity="0" result="BackgroundImageFix"/>
<feColorMatrix in="SourceAlpha" type="matrix" values="0 0 0 0 0 0 0 0 0 0 0 0 0 0 0 0 0 0 127 0" result="hardAlpha"/>
<feOffset dy="4"/>
<feGaussianBlur stdDeviation="2"/>
<feComposite in2="hardAlpha" operator="out"/>
<feColorMatrix type="matrix" values="0 0 0 0 0 0 0 0 0 0 0 0 0 0 0 0 0 0 0.25 0"/>
<feBlend mode="normal" in2="BackgroundImageFix" result="effect1_dropShadow_37_23"/>
<feBlend mode="normal" in="SourceGraphic" in2="effect1_dropShadow_37_23" result="shape"/>
</filter>
<filter id="filter2_d_37_23" x="52" y="73" width="14" height="12" filterUnits="userSpaceOnUse" color-interpolation-filters="sRGB">
<feFlood flood-opacity="0" result="BackgroundImageFix"/>
<feColorMatrix in="SourceAlpha" type="matrix" values="0 0 0 0 0 0 0 0 0 0 0 0 0 0 0 0 0 0 127 0" result="hardAlpha"/>
<feOffset dy="4"/>
<feGaussianBlur stdDeviation="2"/>
<feComposite in2="hardAlpha" operator="out"/>
<feColorMatrix type="matrix" values="0 0 0 0 0 0 0 0 0 0 0 0 0 0 0 0 0 0 0.25 0"/>
<feBlend mode="normal" in2="BackgroundImageFix" result="effect1_dropShadow_37_23"/>
<feBlend mode="normal" in="SourceGraphic" in2="effect1_dropShadow_37_23" result="shape"/>
</filter>
<filter id="filter3_d_37_23" x="7" y="52" width="62" height="10" filterUnits="userSpaceOnUse" color-interpolation-filters="sRGB">
<feFlood flood-opacity="0" result="BackgroundImageFix"/>
<feColorMatrix in="SourceAlpha" type="matrix" values="0 0 0 0 0 0 0 0 0 0 0 0 0 0 0 0 0 0 127 0" result="hardAlpha"/>
<feOffset dy="4"/>
<feGaussianBlur stdDeviation="2"/>
<feComposite in2="hardAlpha" operator="out"/>
<feColorMatrix type="matrix" values="0 0 0 0 0 0 0 0 0 0 0 0 0 0 0 0 0 0 0.25 0"/>
<feBlend mode="normal" in2="BackgroundImageFix" result="effect1_dropShadow_37_23"/>
<feBlend mode="normal" in="SourceGraphic" in2="effect1_dropShadow_37_23" result="shape"/>
</filter>
<filter id="filter4_d_37_23" x="20" y="73" width="36" height="18" filterUnits="userSpaceOnUse" color-interpolation-filters="sRGB">
<feFlood flood-opacity="0" result="BackgroundImageFix"/>
<feColorMatrix in="SourceAlpha" type="matrix" values="0 0 0 0 0 0 0 0 0 0 0 0 0 0 0 0 0 0 127 0" result="hardAlpha"/>
<feOffset dy="4"/>
<feGaussianBlur stdDeviation="2"/>
<feComposite in2="hardAlpha" operator="out"/>
<feColorMatrix type="matrix" values="0 0 0 0 0 0 0 0 0 0 0 0 0 0 0 0 0 0 0.25 0"/>
<feBlend mode="normal" in2="BackgroundImageFix" result="effect1_dropShadow_37_23"/>
<feBlend mode="normal" in="SourceGraphic" in2="effect1_dropShadow_37_23" result="shape"/>
</filter>
<filter id="filter5_d_37_23" x="10" y="73" width="14" height="12" filterUnits="userSpaceOnUse" color-interpolation-filters="sRGB">
<feFlood flood-opacity="0" result="BackgroundImageFix"/>
<feColorMatrix in="SourceAlpha" type="matrix" values="0 0 0 0 0 0 0 0 0 0 0 0 0 0 0 0 0 0 127 0" result="hardAlpha"/>
<feOffset dy="4"/>
<feGaussianBlur stdDeviation="2"/>
<feComposite in2="hardAlpha" operator="out"/>
<feColorMatrix type="matrix" values="0 0 0 0 0 0 0 0 0 0 0 0 0 0 0 0 0 0 0.25 0"/>
<feBlend mode="normal" in2="BackgroundImageFix" result="effect1_dropShadow_37_23"/>
<feBlend mode="normal" in="SourceGraphic" in2="effect1_dropShadow_37_23" result="shape"/>
</filter>
<filter id="filter6_d_37_23" x="22" y="0" width="32" height="59" filterUnits="userSpaceOnUse" color-interpolation-filters="sRGB">
<feFlood flood-opacity="0" result="BackgroundImageFix"/>
<feColorMatrix in="SourceAlpha" type="matrix" values="0 0 0 0 0 0 0 0 0 0 0 0 0 0 0 0 0 0 127 0" result="hardAlpha"/>
<feOffset dy="4"/>
<feGaussianBlur stdDeviation="2"/>
<feComposite in2="hardAlpha" operator="out"/>
<feColorMatrix type="matrix" values="0 0 0 0 0 0 0 0 0 0 0 0 0 0 0 0 0 0 0.25 0"/>
<feBlend mode="normal" in2="BackgroundImageFix" result="effect1_dropShadow_37_23"/>
<feBlend mode="normal" in="SourceGraphic" in2="effect1_dropShadow_37_23" result="shape"/>
</filter>
<filter id="filter7_d_37_23" x="0" y="16" width="25" height="43" filterUnits="userSpaceOnUse" color-interpolation-filters="sRGB">
<feFlood flood-opacity="0" result="BackgroundImageFix"/>
<feColorMatrix in="SourceAlpha" type="matrix" values="0 0 0 0 0 0 0 0 0 0 0 0 0 0 0 0 0 0 127 0" result="hardAlpha"/>
<feOffset dy="4"/>
<feGaussianBlur stdDeviation="2"/>
<feComposite in2="hardAlpha" operator="out"/>
<feColorMatrix type="matrix" values="0 0 0 0 0 0 0 0 0 0 0 0 0 0 0 0 0 0 0.25 0"/>
<feBlend mode="normal" in2="BackgroundImageFix" result="effect1_dropShadow_37_23"/>
<feBlend mode="normal" in="SourceGraphic" in2="effect1_dropShadow_37_23" result="shape"/>
</filter>
<filter id="filter8_d_37_23" x="51" y="16" width="25" height="43" filterUnits="userSpaceOnUse" color-interpolation-filters="sRGB">
<feFlood flood-opacity="0" result="BackgroundImageFix"/>
<feColorMatrix in="SourceAlpha" type="matrix" values="0 0 0 0 0 0 0 0 0 0 0 0 0 0 0 0 0 0 127 0" result="hardAlpha"/>
<feOffset dy="4"/>
<feGaussianBlur stdDeviation="2"/>
<feComposite in2="hardAlpha" operator="out"/>
<feColorMatrix type="matrix" values="0 0 0 0 0 0 0 0 0 0 0 0 0 0 0 0 0 0 0.25 0"/>
<feBlend mode="normal" in2="BackgroundImageFix" result="effect1_dropShadow_37_23"/>
<feBlend mode="normal" in="SourceGraphic" in2="effect1_dropShadow_37_23" result="shape"/>
</filter>
<filter id="filter9_d_37_23" x="3" y="58.26" width="70.0444" height="15.836" filterUnits="userSpaceOnUse" color-interpolation-filters="sRGB">
<feFlood flood-opacity="0" result="BackgroundImageFix"/>
<feColorMatrix in="SourceAlpha" type="matrix" values="0 0 0 0 0 0 0 0 0 0 0 0 0 0 0 0 0 0 127 0" result="hardAlpha"/>
<feOffset dy="4"/>
<feGaussianBlur stdDeviation="2"/>
<feComposite in2="hardAlpha" operator="out"/>
<feColorMatrix type="matrix" values="0 0 0 0 0 0 0 0 0 0 0 0 0 0 0 0 0 0 0.25 0"/>
<feBlend mode="normal" in2="BackgroundImageFix" result="effect1_dropShadow_37_23"/>
<feBlend mode="normal" in="SourceGraphic" in2="effect1_dropShadow_37_23" result="shape"/>
</filter>
</defs>
</svg>
