<svg width="18" height="26" viewBox="0 0 18 26" fill="none" xmlns="http://www.w3.org/2000/svg">
<path id="Vector" d="M1.37096e-07 1.56819C0.970703 0.546493 2.16097 0.0240319 3.5708 0.000811257C4.98063 -0.0224094 6.1709 0.45361 7.1416 1.42887C7.18783 1.42887 7.22249 1.45209 7.24561 1.49853C7.26872 1.54497 7.30339 1.56819 7.34961 1.56819L17.75 12.5747L7.34961 23.5812C6.37891 24.6029 5.2002 25.1254 3.81348 25.1486C2.42676 25.1718 1.22494 24.6958 0.20801 23.7205C0.161785 23.7205 0.127117 23.6973 0.104006 23.6509C0.0808946 23.6044 0.0462267 23.5812 2.06154e-06 23.5812L10.4004 12.5747L1.37096e-07 1.56819Z" fill="black"/>
</svg>
